<svg width="64" height="64" viewBox="0 0 64 64" fill="none" xmlns="http://www.w3.org/2000/svg">
<path d="M53 14.8343L36 5.05994C34.7824 4.36541 33.4034 4 32 4C30.5966 4 29.2176 4.36541 28 5.05994L11 14.8343C9.78358 15.5334 8.77351 16.5388 8.07135 17.7497C7.36919 18.9605 6.99968 20.3341 7 21.7321V41.261C6.99968 42.6591 7.36919 44.0326 8.07135 45.2434C8.77351 46.4543 9.78358 47.4598 11 48.1588L28 57.9332C29.2162 58.6321 30.5957 59 32 59C33.4043 59 34.7838 58.6321 36 57.9332L53 48.1588C54.2164 47.4598 55.2265 46.4543 55.9286 45.2434C56.6308 44.0326 57.0003 42.6591 57 41.261V21.7321C57.0003 20.3341 56.6308 18.9605 55.9286 17.7497C55.2265 16.5388 54.2164 15.5334 53 14.8343ZM30 8.51382C30.6072 8.16192 31.2973 7.97653 32 7.97653C32.7027 7.97653 33.3928 8.16192 34 8.51382L51 18.2782H51.03L32 29.4561L23.53 24.4793L32 19.612L36.59 22.2497L40.53 19.9305L34 16.1681C33.3919 15.8187 32.7021 15.6347 32 15.6347C31.2979 15.6347 30.6081 15.8187 30 16.1681L19.66 22.1104C19.6344 22.1236 19.6109 22.1403 19.59 22.1601L13 18.2782L30 8.51382ZM13 44.7149C12.3911 44.3649 11.8855 43.8614 11.5344 43.255C11.1833 42.6487 10.999 41.9609 11 41.261V21.7321L30.03 32.9299V42.2464L21.66 37.4388V32.6313L17.66 30.2723V37.4388C17.6607 38.137 17.8459 38.8228 18.1969 39.4272C18.548 40.0317 19.0525 40.5337 19.66 40.8828L30 46.825H30.03V54.4793H30L13 44.7149ZM53 41.261C53.001 41.9609 52.8167 42.6487 52.4656 43.255C52.1145 43.8614 51.6089 44.3649 51 44.7149L34.03 54.4594V32.8901L42.34 28.0277V37.4438L38.03 39.9322V44.5208L44.34 40.8977C44.9475 40.5486 45.452 40.0466 45.8031 39.4422C46.1541 38.8377 46.3393 38.152 46.34 37.4538V25.6737L53 21.762V41.261Z" fill="#7B3FE4"/>
</svg>
