<?xml version="1.0" standalone="no"?>
<!DOCTYPE svg PUBLIC "-//W3C//DTD SVG 20010904//EN"
 "http://www.w3.org/TR/2001/REC-SVG-20010904/DTD/svg10.dtd">
<svg version="1.0" xmlns="http://www.w3.org/2000/svg"
 width="2000.000000pt" height="2000.000000pt" viewBox="0 0 2000.000000 2000.000000"
 preserveAspectRatio="xMidYMid meet">
<metadata>
Created by potrace 1.11, written by Peter Selinger 2001-2013
</metadata>
<g transform="translate(0.000000,2000.000000) scale(0.100000,-0.100000)"
fill="#000000" stroke="none">
<path d="M5065 18696 c-121 -45 -166 -67 -335 -167 -184 -109 -614 -361 -660
-387 -19 -11 -81 -47 -138 -81 -57 -33 -106 -61 -108 -61 -3 0 -17 -9 -32 -19
-21 -15 -1105 -650 -1247 -731 -16 -10 -120 -70 -230 -135 -110 -65 -240 -141
-290 -170 -49 -29 -153 -90 -230 -135 -77 -45 -158 -93 -180 -105 -22 -13
-114 -67 -205 -120 -91 -54 -178 -105 -195 -115 -16 -9 -124 -72 -240 -140
-330 -193 -394 -230 -399 -230 -15 0 -162 -110 -218 -163 -176 -168 -287 -375
-340 -637 -11 -53 -13 -550 -13 -2655 0 -1424 3 -2610 7 -2635 38 -258 165
-512 349 -700 136 -138 178 -167 579 -400 173 -100 331 -192 350 -203 19 -11
53 -30 75 -43 22 -12 231 -133 465 -269 234 -137 450 -261 480 -278 30 -16 62
-36 71 -43 8 -8 18 -14 21 -14 3 0 82 -44 174 -98 291 -170 607 -354 654 -380
25 -14 78 -45 118 -69 41 -24 76 -43 79 -43 2 0 24 -13 48 -30 24 -16 46 -30
48 -30 3 0 204 -116 448 -258 244 -142 451 -261 459 -265 8 -4 29 -16 45 -26
17 -11 57 -35 90 -54 33 -19 126 -73 208 -120 81 -47 147 -84 147 -82 0 2 28
-9 63 -24 143 -64 301 -91 507 -87 279 7 462 66 785 256 55 33 164 96 243 142
79 46 151 88 160 93 29 17 164 96 507 295 182 106 346 202 365 212 42 24 60
34 215 126 66 38 246 143 400 232 272 159 506 294 885 515 102 59 201 117 220
128 19 11 136 78 260 150 124 72 252 146 285 165 33 19 74 42 90 52 187 109
329 190 332 190 2 0 16 8 31 19 25 17 312 184 412 239 25 14 57 33 72 43 14
11 28 19 31 19 2 0 67 37 143 81 76 45 158 93 181 105 23 13 93 54 155 90 62
37 128 75 147 86 19 11 237 138 485 282 572 334 883 514 921 536 17 10 194
113 395 230 775 452 738 434 980 480 133 26 366 21 505 -10 212 -47 275 -77
733 -344 512 -297 873 -507 897 -520 11 -6 31 -18 45 -27 21 -14 271 -159 390
-227 249 -142 586 -342 634 -377 278 -199 455 -499 513 -870 9 -54 9 -2824 1
-2900 -18 -156 -61 -294 -140 -445 -62 -120 -130 -211 -236 -317 -106 -106
-200 -170 -562 -385 -162 -96 -419 -249 -570 -339 -151 -90 -284 -169 -295
-175 -19 -11 -386 -229 -785 -467 -240 -144 -294 -173 -388 -207 -162 -59
-291 -79 -474 -75 -258 7 -491 82 -762 245 -184 111 -739 430 -747 430 -5 0
-9 5 -9 10 0 6 -4 10 -8 10 -5 0 -141 77 -303 171 -162 95 -314 183 -339 197
-25 13 -49 28 -55 32 -5 4 -30 19 -55 32 -77 43 -573 333 -615 360 -71 45
-192 147 -237 199 -24 28 -51 61 -62 73 -69 78 -167 260 -210 391 -62 190 -59
136 -65 1142 l-6 923 -57 -34 c-52 -32 -101 -60 -181 -105 -16 -9 -36 -20 -46
-26 -9 -5 -55 -32 -101 -59 -47 -27 -123 -72 -170 -99 -188 -110 -496 -288
-875 -507 -121 -69 -293 -169 -383 -221 l-163 -94 4 -940 c2 -517 7 -956 11
-975 48 -221 104 -359 207 -511 106 -156 277 -314 439 -406 19 -11 91 -53 160
-93 174 -102 701 -407 970 -562 124 -72 245 -143 270 -158 25 -15 65 -39 90
-53 25 -13 207 -119 406 -234 198 -116 380 -222 405 -235 24 -14 98 -57 164
-95 299 -174 859 -500 893 -520 20 -12 44 -25 52 -29 8 -4 75 -44 150 -87 74
-44 149 -87 165 -97 26 -15 150 -87 248 -143 207 -120 268 -154 339 -185 l83
-37 384 -3 c507 -4 435 -26 1039 324 185 108 351 204 367 214 183 105 303 175
372 218 30 17 55 32 58 32 3 0 42 22 87 49 46 27 166 97 268 156 102 59 214
124 250 145 159 93 359 209 400 232 25 14 119 69 209 122 90 53 165 96 168 96
2 0 22 11 44 26 22 14 55 33 72 43 18 10 131 76 252 146 121 71 241 140 266
154 49 28 304 176 329 192 32 19 343 199 346 199 1 0 39 23 84 50 45 28 83 50
85 50 5 0 205 118 250 148 77 51 183 148 268 245 39 45 126 185 159 257 61
131 98 258 117 400 13 91 12 5169 0 5245 -20 123 -34 180 -63 263 -111 312
-317 548 -641 733 -33 19 -67 39 -77 44 -9 6 -45 26 -80 46 -34 19 -216 124
-403 233 -187 109 -414 241 -505 294 -91 52 -286 166 -435 252 -452 263 -1138
662 -1170 680 -57 32 -341 197 -880 511 -630 366 -672 388 -791 428 -79 26
-234 58 -289 60 -70 1 -225 -1 -250 -3 -139 -16 -308 -62 -438 -120 -29 -13
-267 -149 -528 -303 -838 -495 -1430 -844 -1579 -931 -80 -47 -201 -118 -268
-159 -68 -40 -128 -73 -133 -73 -5 0 -9 -4 -9 -10 0 -5 -4 -10 -10 -10 -8 0
-37 -16 -160 -90 -87 -52 -393 -229 -420 -244 -19 -10 -75 -41 -124 -68 -49
-27 -128 -70 -175 -95 -47 -26 -98 -55 -113 -65 -14 -10 -28 -18 -31 -18 -3 0
-36 -17 -74 -38 -37 -22 -99 -56 -138 -77 -38 -21 -110 -61 -160 -88 -49 -28
-108 -60 -130 -72 -39 -22 -210 -116 -290 -160 -22 -12 -62 -35 -90 -50 -493
-273 -563 -312 -750 -425 -93 -57 -179 -108 -190 -114 -17 -10 -319 -192 -366
-221 -9 -5 -38 -22 -65 -37 -27 -16 -202 -120 -389 -233 -187 -113 -340 -205
-340 -205 0 0 -210 -126 -465 -279 -920 -553 -890 -535 -1004 -577 -133 -48
-241 -67 -401 -70 -296 -6 -520 58 -795 226 -153 93 -208 127 -225 136 -11 6
-103 62 -205 124 -102 62 -198 120 -215 130 -25 14 -213 128 -265 160 -20 12
-614 372 -715 433 -44 26 -87 52 -95 57 -125 78 -212 130 -215 130 -9 0 -286
177 -325 208 -249 198 -420 496 -468 817 -4 28 -7 703 -7 1500 0 1527 -2 1443
39 1613 34 146 139 342 255 482 156 185 182 202 1251 819 30 18 62 36 70 41
64 41 222 130 230 130 6 0 10 5 10 10 0 6 4 10 10 10 5 0 55 27 111 60 55 33
102 60 103 60 2 0 43 24 92 53 49 30 109 65 134 79 25 14 86 49 135 78 50 29
149 86 220 128 72 41 146 85 165 97 54 34 178 90 252 114 131 43 260 61 418
56 80 -2 160 -7 179 -10 81 -12 241 -58 325 -93 102 -42 138 -63 1146 -675 91
-55 183 -111 205 -124 22 -13 47 -28 55 -34 8 -5 101 -61 205 -124 156 -93
541 -325 680 -410 18 -11 55 -33 82 -49 185 -111 351 -291 455 -492 35 -67 92
-210 103 -257 2 -12 12 -56 21 -97 15 -67 17 -177 20 -995 2 -506 3 -928 4
-938 0 -16 6 -14 53 12 28 17 77 44 107 61 30 16 62 35 70 40 28 18 215 126
230 133 8 4 29 15 45 26 17 10 46 27 65 38 120 69 507 293 567 330 40 23 75
43 78 43 2 0 29 16 59 35 30 19 58 35 61 35 4 0 19 8 33 19 15 10 47 29 72 43
25 14 71 40 104 59 32 19 82 48 111 64 28 17 113 65 187 109 l136 78 -2 962
c-2 662 -6 975 -13 1006 -6 25 -14 61 -17 80 -9 56 -62 205 -101 281 -70 137
-140 234 -247 341 -126 125 -138 133 -732 482 -137 80 -253 146 -257 146 -5 0
-9 4 -9 9 0 5 -8 11 -17 15 -10 3 -32 13 -48 23 -17 10 -73 43 -125 74 -132
79 -771 454 -1095 644 -148 86 -290 170 -315 185 -25 16 -61 37 -80 48 -19 10
-289 169 -600 352 -311 183 -581 342 -600 352 -19 11 -147 87 -285 168 -279
164 -325 189 -421 225 l-66 25 -377 0 -376 -1 -90 -33z"/>
</g>
</svg>
